HIERARCHY
ROOT Hips
{
    OFFSET 0.000 95.729 0.000
    CHANNELS 6 Xposition Yposition Zposition Yrotation Xrotation Zrotation
    JOINT RightUpLeg
    {
        OFFSET -9.625 -1.639 0.000
        CHANNELS 6 Xposition Yposition Zposition Yrotation Xrotation Zrotation
        JOINT RightLeg
        {
            OFFSET 0.000 -41.481 0.000
            CHANNELS 6 Xposition Yposition Zposition Yrotation Xrotation Zrotation
            JOINT RightFoot
            {
                OFFSET 0.000 -43.120 0.000
                CHANNELS 6 Xposition Yposition Zposition Yrotation Xrotation Zrotation
                End Site
                {
                    OFFSET 0.000 -7.850 17.850
                }
            }
        }
    }
    JOINT LeftUpLeg
    {
        OFFSET 9.625 -1.639 0.000
        CHANNELS 6 Xposition Yposition Zposition Yrotation Xrotation Zrotation
        JOINT LeftLeg
        {
            OFFSET 0.000 -43.120 0.000
            CHANNELS 6 Xposition Yposition Zposition Yrotation Xrotation Zrotation
            JOINT LeftFoot
            {
                OFFSET 0.000 -43.120 0.000
                CHANNELS 6 Xposition Yposition Zposition Yrotation Xrotation Zrotation
                End Site
                {
                    OFFSET 0.000 -7.850 17.850
                }
            }
        }
    }
    JOINT Spine
    {
        OFFSET 0.000 16.395 0.000
        CHANNELS 6 Xposition Yposition Zposition Yrotation Xrotation Zrotation
        JOINT Spine1
        {
            OFFSET 0.000 10.023 0.000
            CHANNELS 6 Xposition Yposition Zposition Yrotation Xrotation Zrotation
            JOINT Spine2
            {
                OFFSET 0.000 10.437 0.000
                CHANNELS 6 Xposition Yposition Zposition Yrotation Xrotation Zrotation
                JOINT Spine3
                {
                    OFFSET 0.000 10.023 0.000
                    CHANNELS 6 Xposition Yposition Zposition Yrotation Xrotation Zrotation
                    JOINT Neck
                    {
                        OFFSET 0.000 10.713 0.000
                        CHANNELS 6 Xposition Yposition Zposition Yrotation Xrotation Zrotation
                        JOINT Head
                        {
                            OFFSET 0.000 9.720 0.000
                            CHANNELS 6 Xposition Yposition Zposition Yrotation Xrotation Zrotation
                            End Site
                            {
                                OFFSET 0.000 16.450 0.000
                            }
                        }
                    }
                    JOINT RightShoulder
                    {
                        OFFSET -3.275 7.142 0.000
                        CHANNELS 6 Xposition Yposition Zposition Yrotation Xrotation Zrotation
                        JOINT RightArm
                        {
                            OFFSET -13.100 0.000 0.000
                            CHANNELS 6 Xposition Yposition Zposition Yrotation Xrotation Zrotation
                            JOINT RightForeArm
                            {
                                OFFSET -27.250 0.000 0.000
                                CHANNELS 6 Xposition Yposition Zposition Yrotation Xrotation Zrotation
                                JOINT RightHand
                                {
                                    OFFSET -26.750 0.000 0.000
                                    CHANNELS 6 Xposition Yposition Zposition Yrotation Xrotation Zrotation
                                    JOINT RightHandThumb1
                                    {
                                        OFFSET -2.560 0.196 3.210
                                        CHANNELS 6 Xposition Yposition Zposition Yrotation Xrotation Zrotation
                                        JOINT RightHandThumb2
                                        {
                                            OFFSET -3.788 0.000 0.000
                                            CHANNELS 6 Xposition Yposition Zposition Yrotation Xrotation Zrotation
                                            JOINT RightHandThumb3
                                            {
                                                OFFSET -2.631 0.000 0.000
                                                CHANNELS 6 Xposition Yposition Zposition Yrotation Xrotation Zrotation
                                                End Site
                                                {
                                                    OFFSET -2.256 0.000 0.000
                                                }
                                            }
                                        }
                                    }
                                    JOINT RightInHandIndex
                                    {
                                        OFFSET -3.316 0.523 2.035
                                        CHANNELS 6 Xposition Yposition Zposition Yrotation Xrotation Zrotation
                                        JOINT RightHandIndex1
                                        {
                                            OFFSET -5.366 -0.094 1.028
                                            CHANNELS 6 Xposition Yposition Zposition Yrotation Xrotation Zrotation
                                            JOINT RightHandIndex2
                                            {
                                                OFFSET -3.723 0.000 0.000
                                                CHANNELS 6 Xposition Yposition Zposition Yrotation Xrotation Zrotation
                                                JOINT RightHandIndex3
                                                {
                                                    OFFSET -2.111 0.000 0.000
                                                    CHANNELS 6 Xposition Yposition Zposition Yrotation Xrotation Zrotation
                                                    End Site
                                                    {
                                                        OFFSET -1.857 0.000 0.000
                                                    }
                                                }
                                            }
                                        }
                                    }
                                    JOINT RightInHandMiddle
                                    {
                                        OFFSET -3.479 0.532 0.778
                                        CHANNELS 6 Xposition Yposition Zposition Yrotation Xrotation Zrotation
                                        JOINT RightHandMiddle1
                                        {
                                            OFFSET -5.322 -0.086 0.323
                                            CHANNELS 6 Xposition Yposition Zposition Yrotation Xrotation Zrotation
                                            JOINT RightHandMiddle2
                                            {
                                                OFFSET -4.062 0.000 0.000
                                                CHANNELS 6 Xposition Yposition Zposition Yrotation Xrotation Zrotation
                                                JOINT RightHandMiddle3
                                                {
                                                    OFFSET -2.547 0.000 0.000
                                                    CHANNELS 6 Xposition Yposition Zposition Yrotation Xrotation Zrotation
                                                    End Site
                                                    {
                                                        OFFSET -2.031 0.000 0.000
                                                    }
                                                }
                                            }
                                        }
                                    }
                                    JOINT RightInHandRing
                                    {
                                        OFFSET -3.461 0.553 -0.133
                                        CHANNELS 6 Xposition Yposition Zposition Yrotation Xrotation Zrotation
                                        JOINT RightHandRing1
                                        {
                                            OFFSET -4.767 -0.023 -0.493
                                            CHANNELS 6 Xposition Yposition Zposition Yrotation Xrotation Zrotation
                                            JOINT RightHandRing2
                                            {
                                                OFFSET -3.541 0.000 0.000
                                                CHANNELS 6 Xposition Yposition Zposition Yrotation Xrotation Zrotation
                                                JOINT RightHandRing3
                                                {
                                                    OFFSET -2.456 0.000 0.000
                                                    CHANNELS 6 Xposition Yposition Zposition Yrotation Xrotation Zrotation
                                                    End Site
                                                    {
                                                        OFFSET -1.910 0.000 0.000
                                                    }
                                                }
                                            }
                                        }
                                    }
                                    JOINT RightInHandPinky
                                    {
                                        OFFSET -3.251 0.483 -1.236
                                        CHANNELS 6 Xposition Yposition Zposition Yrotation Xrotation Zrotation
                                        JOINT RightHandPinky1
                                        {
                                            OFFSET -4.259 -0.023 -1.122
                                            CHANNELS 6 Xposition Yposition Zposition Yrotation Xrotation Zrotation
                                            JOINT RightHandPinky2
                                            {
                                                OFFSET -2.835 0.000 0.000
                                                CHANNELS 6 Xposition Yposition Zposition Yrotation Xrotation Zrotation
                                                JOINT RightHandPinky3
                                                {
                                                    OFFSET -1.792 0.000 0.000
                                                    CHANNELS 6 Xposition Yposition Zposition Yrotation Xrotation Zrotation
                                                    End Site
                                                    {
                                                        OFFSET -1.692 0.000 0.000
                                                    }
                                                }
                                            }
                                        }
                                    }
                                }
                            }
                        }
                    }
                    JOINT LeftShoulder
                    {
                        OFFSET 3.275 7.142 0.000
                        CHANNELS 6 Xposition Yposition Zposition Yrotation Xrotation Zrotation
                        JOINT LeftArm
                        {
                            OFFSET 13.100 0.000 0.000
                            CHANNELS 6 Xposition Yposition Zposition Yrotation Xrotation Zrotation
                            JOINT LeftForeArm
                            {
                                OFFSET 27.250 0.000 0.000
                                CHANNELS 6 Xposition Yposition Zposition Yrotation Xrotation Zrotation
                                JOINT LeftHand
                                {
                                    OFFSET 26.750 0.000 0.000
                                    CHANNELS 6 Xposition Yposition Zposition Yrotation Xrotation Zrotation
                                    JOINT LeftHandThumb1
                                    {
                                        OFFSET 2.560 0.196 3.210
                                        CHANNELS 6 Xposition Yposition Zposition Yrotation Xrotation Zrotation
                                        JOINT LeftHandThumb2
                                        {
                                            OFFSET 3.788 0.000 0.000
                                            CHANNELS 6 Xposition Yposition Zposition Yrotation Xrotation Zrotation
                                            JOINT LeftHandThumb3
                                            {
                                                OFFSET 2.631 0.000 0.000
                                                CHANNELS 6 Xposition Yposition Zposition Yrotation Xrotation Zrotation
                                                End Site
                                                {
                                                    OFFSET 2.256 0.000 0.000
                                                }
                                            }
                                        }
                                    }
                                    JOINT LeftInHandIndex
                                    {
                                        OFFSET 3.316 0.523 2.035
                                        CHANNELS 6 Xposition Yposition Zposition Yrotation Xrotation Zrotation
                                        JOINT LeftHandIndex1
                                        {
                                            OFFSET 5.366 -0.094 1.028
                                            CHANNELS 6 Xposition Yposition Zposition Yrotation Xrotation Zrotation
                                            JOINT LeftHandIndex2
                                            {
                                                OFFSET 3.723 0.000 0.000
                                                CHANNELS 6 Xposition Yposition Zposition Yrotation Xrotation Zrotation
                                                JOINT LeftHandIndex3
                                                {
                                                    OFFSET 2.111 0.000 0.000
                                                    CHANNELS 6 Xposition Yposition Zposition Yrotation Xrotation Zrotation
                                                    End Site
                                                    {
                                                        OFFSET 1.857 0.000 0.000
                                                    }
                                                }
                                            }
                                        }
                                    }
                                    JOINT LeftInHandMiddle
                                    {
                                        OFFSET 3.479 0.532 0.778
                                        CHANNELS 6 Xposition Yposition Zposition Yrotation Xrotation Zrotation
                                        JOINT LeftHandMiddle1
                                        {
                                            OFFSET 5.322 -0.086 0.323
                                            CHANNELS 6 Xposition Yposition Zposition Yrotation Xrotation Zrotation
                                            JOINT LeftHandMiddle2
                                            {
                                                OFFSET 4.062 0.000 0.000
                                                CHANNELS 6 Xposition Yposition Zposition Yrotation Xrotation Zrotation
                                                JOINT LeftHandMiddle3
                                                {
                                                    OFFSET 2.547 0.000 0.000
                                                    CHANNELS 6 Xposition Yposition Zposition Yrotation Xrotation Zrotation
                                                    End Site
                                                    {
                                                        OFFSET 2.031 0.000 0.000
                                                    }
                                                }
                                            }
                                        }
                                    }
                                    JOINT LeftInHandRing
                                    {
                                        OFFSET 3.461 0.553 -0.133
                                        CHANNELS 6 Xposition Yposition Zposition Yrotation Xrotation Zrotation
                                        JOINT LeftHandRing1
                                        {
                                            OFFSET 4.767 -0.023 -0.493
                                            CHANNELS 6 Xposition Yposition Zposition Yrotation Xrotation Zrotation
                                            JOINT LeftHandRing2
                                            {
                                                OFFSET 3.541 0.000 0.000
                                                CHANNELS 6 Xposition Yposition Zposition Yrotation Xrotation Zrotation
                                                JOINT LeftHandRing3
                                                {
                                                    OFFSET 2.456 0.000 0.000
                                                    CHANNELS 6 Xposition Yposition Zposition Yrotation Xrotation Zrotation
                                                    End Site
                                                    {
                                                        OFFSET 1.910 0.000 0.000
                                                    }
                                                }
                                            }
                                        }
                                    }
                                    JOINT LeftInHandPinky
                                    {
                                        OFFSET 3.251 0.483 -1.236
                                        CHANNELS 6 Xposition Yposition Zposition Yrotation Xrotation Zrotation
                                        JOINT LeftHandPinky1
                                        {
                                            OFFSET 4.259 -0.023 -1.122
                                            CHANNELS 6 Xposition Yposition Zposition Yrotation Xrotation Zrotation
                                            JOINT LeftHandPinky2
                                            {
                                                OFFSET 2.835 0.000 0.000
                                                CHANNELS 6 Xposition Yposition Zposition Yrotation Xrotation Zrotation
                                                JOINT LeftHandPinky3
                                                {
                                                    OFFSET 1.792 0.000 0.000
                                                    CHANNELS 6 Xposition Yposition Zposition Yrotation Xrotation Zrotation
                                                    End Site
                                                    {
                                                        OFFSET 1.692 0.000 0.000
                                                    }
                                                }
                                            }
                                        }
                                    }
                                }
                            }
                        }
                    }
                }
            }
        }
    }
}
MOTION

Frames: 2
Frame Time: 0.008
-65.18 57.83 60.33 116.78 5.20 -1.03 -9.60 -1.64 -0.04 53.41 -81.08 -67.52 0.08 -41.47 0.02 135.74 73.77 151.36 -0.06 -43.94 0.37 -3.55 -18.56 -5.35 9.62 -1.64 0.01 72.54 -78.40 -73.21 -0.01 -43.12 -0.02 -158.31 78.23 -152.75 -0.12 -42.24 -0.26 29.88 -13.84 -5.27 -0.01 16.39 0.04 22.32 -5.29 -0.80 0.01 10.02 0.01 5.65 -1.23 0.02 0.01 10.44 0.02 8.96 -1.93 -0.04 0.01 10.02 0.02 0.22 0.03 -0.14 0.02 10.71 0.02 0.22 0.03 -0.14 -0.00 9.72 0.02 4.01 0.77 -2.52 -3.27 7.15 -0.02 -0.22 0.01 0.06 -13.11 0.01 -0.03 56.25 -15.41 9.45 -27.24 0.03 -0.04 -9.48 -10.50 -12.35 -26.76 0.03 -0.05 5.06 27.03 -4.89 -2.56 0.20 3.21 21.86 -0.00 30.00 -3.79 0.00 0.00 -10.00 -0.00 0.00 -2.63 0.00 0.00 -10.00 -0.00 0.00 -3.32 0.52 2.03 0.00 -0.00 0.00 -5.37 -0.09 1.03 2.55 -0.00 20.00 -3.72 0.00 0.00 0.00 -0.00 24.00 -2.11 0.00 0.00 0.00 -0.00 20.00 -3.48 0.53 0.78 0.00 -0.00 0.00 -5.32 -0.09 0.32 0.00 -0.00 20.00 -4.06 0.00 0.00 0.00 -0.00 24.00 -2.55 0.00 0.00 0.00 -0.00 20.00 -3.46 0.55 -0.13 0.00 -0.00 0.00 -4.77 -0.02 -0.49 -3.00 -0.00 20.00 -3.54 0.00 0.00 0.00 -0.00 24.00 -2.46 0.00 0.00 0.00 -0.00 20.00 -3.25 0.48 -1.24 0.00 -0.00 0.00 -4.26 -0.02 -1.12 -8.83 -0.00 20.00 -2.84 0.00 0.00 0.00 -0.00 24.00 -1.79 0.00 0.00 0.00 -0.00 20.00 3.30 7.14 0.00 -66.20 -7.06 9.53 13.06 0.02 -0.00 -58.89 -44.97 -32.28 27.26 -0.03 0.05 28.18 24.94 25.91 26.75 -0.04 0.02 -9.83 -7.51 11.38 2.56 0.20 3.21 -21.86 -0.00 -30.00 3.79 0.00 0.00 10.00 -0.00 0.00 2.63 0.00 0.00 10.00 -0.00 0.00 3.32 0.52 2.03 0.00 -0.00 0.00 5.37 -0.09 1.03 -2.55 -0.00 -20.00 3.72 0.00 0.00 0.00 -0.00 -24.00 2.11 0.00 0.00 0.00 -0.00 -20.00 3.48 0.53 0.78 0.00 -0.00 0.00 5.32 -0.09 0.32 0.00 -0.00 -20.00 4.06 0.00 0.00 0.00 -0.00 -24.00 2.55 0.00 0.00 0.00 -0.00 -20.00 3.46 0.55 -0.13 0.00 -0.00 0.00 4.77 -0.02 -0.49 3.00 -0.00 -20.00 3.54 0.00 0.00 0.00 -0.00 -24.00 2.46 0.00 0.00 0.00 -0.00 -20.00 3.25 0.48 -1.24 0.00 -0.00 0.00 4.26 -0.02 -1.12 8.83 -0.00 -20.00 2.84 0.00 0.00 0.00 -0.00 -24.00 1.79 0.00 0.00 0.00 -0.00 -20.00 
-65.19 57.83 60.33 116.79 5.19 -1.03 -9.60 -1.64 -0.04 53.28 -81.08 -67.40 0.07 -41.47 0.02 135.66 73.76 151.29 -0.06 -43.97 0.39 -3.56 -18.56 -5.37 9.62 -1.64 0.02 72.44 -78.40 -73.11 -0.01 -43.12 -0.02 -158.31 78.24 -152.74 -0.13 -42.21 -0.26 29.86 -13.84 -5.27 -0.01 16.39 0.04 22.31 -5.29 -0.79 0.01 10.02 0.01 5.64 -1.23 0.02 0.01 10.44 0.02 8.96 -1.93 -0.04 0.01 10.02 0.02 0.23 0.03 -0.14 0.02 10.71 0.02 0.22 0.03 -0.14 -0.00 9.72 0.02 4.02 0.78 -2.51 -3.27 7.15 -0.02 -0.23 0.01 0.06 -13.11 0.01 -0.03 56.25 -15.39 9.45 -27.25 0.03 -0.03 -9.49 -10.49 -12.36 -26.76 0.03 -0.04 5.08 27.06 -4.88 -2.56 0.20 3.21 21.86 -0.00 30.00 -3.79 0.00 0.00 -10.00 -0.00 0.00 -2.63 0.00 0.00 -10.00 -0.00 0.00 -3.32 0.52 2.03 0.00 -0.00 0.00 -5.37 -0.09 1.03 2.55 -0.00 20.00 -3.72 0.00 0.00 0.00 -0.00 24.00 -2.11 0.00 0.00 0.00 -0.00 20.00 -3.48 0.53 0.78 0.00 -0.00 0.00 -5.32 -0.09 0.32 0.00 -0.00 20.00 -4.06 0.00 0.00 0.00 -0.00 24.00 -2.55 0.00 0.00 0.00 -0.00 20.00 -3.46 0.55 -0.13 0.00 -0.00 0.00 -4.77 -0.02 -0.49 -3.00 -0.00 20.00 -3.54 0.00 0.00 0.00 -0.00 24.00 -2.46 0.00 0.00 0.00 -0.00 20.00 -3.25 0.48 -1.24 0.00 -0.00 0.00 -4.26 -0.02 -1.12 -8.83 -0.00 20.00 -2.84 0.00 0.00 0.00 -0.00 24.00 -1.79 0.00 0.00 0.00 -0.00 20.00 3.30 7.14 0.00 -66.20 -7.07 9.52 13.06 0.02 -0.00 -58.86 -44.96 -32.30 27.26 -0.03 0.05 28.18 24.98 25.92 26.75 -0.04 0.02 -9.83 -7.50 11.41 2.56 0.20 3.21 -21.86 -0.00 -30.00 3.79 0.00 0.00 10.00 -0.00 0.00 2.63 0.00 0.00 10.00 -0.00 0.00 3.32 0.52 2.03 0.00 -0.00 0.00 5.37 -0.09 1.03 -2.55 -0.00 -20.00 3.72 0.00 0.00 0.00 -0.00 -24.00 2.11 0.00 0.00 0.00 -0.00 -20.00 3.48 0.53 0.78 0.00 -0.00 0.00 5.32 -0.09 0.32 0.00 -0.00 -20.00 4.06 0.00 0.00 0.00 -0.00 -24.00 2.55 0.00 0.00 0.00 -0.00 -20.00 3.46 0.55 -0.13 0.00 -0.00 0.00 4.77 -0.02 -0.49 3.00 -0.00 -20.00 3.54 0.00 0.00 0.00 -0.00 -24.00 2.46 0.00 0.00 0.00 -0.00 -20.00 3.25 0.48 -1.24 0.00 -0.00 0.00 4.26 -0.02 -1.12 8.83 -0.00 -20.00 2.84 0.00 0.00 0.00 -0.00 -24.00 1.79 0.00 0.00 0.00 -0.00 -20.00 
